<mxfile host="app.diagrams.net" agent="Mozilla/5.0 (Macintosh; Intel Mac OS X 10_15_7) AppleWebKit/537.36 (KHTML, like Gecko) Chrome/136.0.0.0 Safari/537.36 Edg/136.0.0.0" version="27.0.2">
  <diagram name="第 1 页" id="isUfc18eds3tyKoJmC20">
    <mxGraphModel dx="1418" dy="704" grid="1" gridSize="10" guides="1" tooltips="1" connect="1" arrows="1" fold="1" page="1" pageScale="1" pageWidth="827" pageHeight="1169" math="0" shadow="0">
      <root>
        <mxCell id="0" />
        <mxCell id="1" parent="0" />
        <mxCell id="9MCj3gH7MAVy1LrXMnC8-1" value="sz-pt" style="rounded=0;whiteSpace=wrap;html=1;" vertex="1" parent="1">
          <mxGeometry x="190" y="110" width="100" height="30" as="geometry" />
        </mxCell>
        <mxCell id="9MCj3gH7MAVy1LrXMnC8-2" value="" style="endArrow=none;dashed=1;html=1;dashPattern=1 3;strokeWidth=2;rounded=0;entryX=0.5;entryY=1;entryDx=0;entryDy=0;" edge="1" parent="1" target="9MCj3gH7MAVy1LrXMnC8-1">
          <mxGeometry width="50" height="50" relative="1" as="geometry">
            <mxPoint x="240" y="550" as="sourcePoint" />
            <mxPoint x="440" y="300" as="targetPoint" />
          </mxGeometry>
        </mxCell>
        <mxCell id="9MCj3gH7MAVy1LrXMnC8-3" value="被测服务" style="rounded=0;whiteSpace=wrap;html=1;" vertex="1" parent="1">
          <mxGeometry x="430" y="110" width="110" height="30" as="geometry" />
        </mxCell>
        <mxCell id="9MCj3gH7MAVy1LrXMnC8-7" value="" style="endArrow=none;dashed=1;html=1;dashPattern=1 3;strokeWidth=2;rounded=0;entryX=0.5;entryY=1;entryDx=0;entryDy=0;" edge="1" parent="1" source="9MCj3gH7MAVy1LrXMnC8-8">
          <mxGeometry width="50" height="50" relative="1" as="geometry">
            <mxPoint x="484.5" y="590" as="sourcePoint" />
            <mxPoint x="484.5" y="140" as="targetPoint" />
          </mxGeometry>
        </mxCell>
        <mxCell id="9MCj3gH7MAVy1LrXMnC8-9" value="" style="endArrow=none;dashed=1;html=1;dashPattern=1 3;strokeWidth=2;rounded=0;entryX=0.5;entryY=1;entryDx=0;entryDy=0;" edge="1" parent="1" target="9MCj3gH7MAVy1LrXMnC8-8">
          <mxGeometry width="50" height="50" relative="1" as="geometry">
            <mxPoint x="485" y="550" as="sourcePoint" />
            <mxPoint x="484.5" y="140" as="targetPoint" />
          </mxGeometry>
        </mxCell>
        <mxCell id="9MCj3gH7MAVy1LrXMnC8-8" value="" style="rounded=0;whiteSpace=wrap;html=1;" vertex="1" parent="1">
          <mxGeometry x="480" y="210" width="10" height="80" as="geometry" />
        </mxCell>
        <mxCell id="9MCj3gH7MAVy1LrXMnC8-10" value="" style="endArrow=classic;html=1;rounded=0;entryX=0;entryY=0.071;entryDx=0;entryDy=0;entryPerimeter=0;" edge="1" parent="1" target="9MCj3gH7MAVy1LrXMnC8-8">
          <mxGeometry width="50" height="50" relative="1" as="geometry">
            <mxPoint x="240" y="220" as="sourcePoint" />
            <mxPoint x="290" y="170" as="targetPoint" />
          </mxGeometry>
        </mxCell>
        <mxCell id="9MCj3gH7MAVy1LrXMnC8-11" value="发送用例测试请求" style="edgeLabel;html=1;align=center;verticalAlign=middle;resizable=0;points=[];" vertex="1" connectable="0" parent="9MCj3gH7MAVy1LrXMnC8-10">
          <mxGeometry x="-0.2083" y="-2" relative="1" as="geometry">
            <mxPoint as="offset" />
          </mxGeometry>
        </mxCell>
        <mxCell id="9MCj3gH7MAVy1LrXMnC8-12" value="" style="endArrow=classic;html=1;rounded=0;entryX=0;entryY=0.071;entryDx=0;entryDy=0;entryPerimeter=0;" edge="1" parent="1">
          <mxGeometry width="50" height="50" relative="1" as="geometry">
            <mxPoint x="240" y="250" as="sourcePoint" />
            <mxPoint x="480" y="250" as="targetPoint" />
          </mxGeometry>
        </mxCell>
        <mxCell id="9MCj3gH7MAVy1LrXMnC8-13" value="发送用例测试请求" style="edgeLabel;html=1;align=center;verticalAlign=middle;resizable=0;points=[];" vertex="1" connectable="0" parent="9MCj3gH7MAVy1LrXMnC8-12">
          <mxGeometry x="-0.2083" y="-2" relative="1" as="geometry">
            <mxPoint as="offset" />
          </mxGeometry>
        </mxCell>
        <mxCell id="9MCj3gH7MAVy1LrXMnC8-14" value="" style="endArrow=classic;html=1;rounded=0;entryX=0;entryY=0.071;entryDx=0;entryDy=0;entryPerimeter=0;" edge="1" parent="1">
          <mxGeometry width="50" height="50" relative="1" as="geometry">
            <mxPoint x="240" y="279.5" as="sourcePoint" />
            <mxPoint x="480" y="279.5" as="targetPoint" />
          </mxGeometry>
        </mxCell>
        <mxCell id="9MCj3gH7MAVy1LrXMnC8-15" value="发送用例测试请求" style="edgeLabel;html=1;align=center;verticalAlign=middle;resizable=0;points=[];" vertex="1" connectable="0" parent="9MCj3gH7MAVy1LrXMnC8-14">
          <mxGeometry x="-0.2083" y="-2" relative="1" as="geometry">
            <mxPoint as="offset" />
          </mxGeometry>
        </mxCell>
        <mxCell id="9MCj3gH7MAVy1LrXMnC8-18" value="" style="rounded=0;whiteSpace=wrap;html=1;" vertex="1" parent="1">
          <mxGeometry x="480" y="330" width="10" height="80" as="geometry" />
        </mxCell>
        <mxCell id="9MCj3gH7MAVy1LrXMnC8-19" value="" style="endArrow=classic;html=1;rounded=0;entryX=0;entryY=0;entryDx=0;entryDy=0;" edge="1" parent="1" target="9MCj3gH7MAVy1LrXMnC8-18">
          <mxGeometry width="50" height="50" relative="1" as="geometry">
            <mxPoint x="240" y="330" as="sourcePoint" />
            <mxPoint x="470" y="330" as="targetPoint" />
          </mxGeometry>
        </mxCell>
        <mxCell id="9MCj3gH7MAVy1LrXMnC8-20" value="发送用例测试结束请求" style="edgeLabel;html=1;align=center;verticalAlign=middle;resizable=0;points=[];" vertex="1" connectable="0" parent="9MCj3gH7MAVy1LrXMnC8-19">
          <mxGeometry x="-0.1043" y="1" relative="1" as="geometry">
            <mxPoint as="offset" />
          </mxGeometry>
        </mxCell>
        <mxCell id="9MCj3gH7MAVy1LrXMnC8-22" value="&lt;span style=&quot;color: rgba(0, 0, 0, 0); font-family: monospace; font-size: 0px; text-align: start; background-color: rgb(236, 236, 236);&quot;&gt;%3CmxGraphModel%3E%3Croot%3E%3CmxCell%20id%3D%220%22%2F%3E%3CmxCell%20id%3D%221%22%20parent%3D%220%22%2F%3E%3CmxCell%20id%3D%222%22%20value%3D%22%22%20style%3D%22endArrow%3Dclassic%3Bhtml%3D1%3Brounded%3D0%3Bcurved%3D1%3B%22%20edge%3D%221%22%20parent%3D%221%22%3E%3CmxGeometry%20width%3D%2250%22%20height%3D%2250%22%20relative%3D%221%22%20as%3D%22geometry%22%3E%3CmxPoint%20x%3D%22500%22%20y%3D%22340%22%20as%3D%22sourcePoint%22%2F%3E%3CmxPoint%20x%3D%22500%22%20y%3D%22350%22%20as%3D%22targetPoint%22%2F%3E%3CArray%20as%3D%22points%22%3E%3CmxPoint%20x%3D%22550%22%20y%3D%22340%22%2F%3E%3CmxPoint%20x%3D%22530%22%20y%3D%22370%22%2F%3E%3C%2FArray%3E%3C%2FmxGeometry%3E%3C%2FmxCell%3E%3C%2Froot%3E%3C%2FmxGraphModel%3E&lt;/span&gt;" style="endArrow=classic;html=1;rounded=0;curved=1;" edge="1" parent="1">
          <mxGeometry width="50" height="50" relative="1" as="geometry">
            <mxPoint x="500" y="340" as="sourcePoint" />
            <mxPoint x="500" y="350" as="targetPoint" />
            <Array as="points">
              <mxPoint x="550" y="340" />
              <mxPoint x="530" y="370" />
            </Array>
          </mxGeometry>
        </mxCell>
        <mxCell id="9MCj3gH7MAVy1LrXMnC8-23" value="&amp;nbsp;生成 exec dump 文件&lt;br&gt;清除自身目标用例 id探针数组" style="text;html=1;align=center;verticalAlign=middle;whiteSpace=wrap;rounded=0;" vertex="1" parent="1">
          <mxGeometry x="550" y="330" width="160" height="30" as="geometry" />
        </mxCell>
        <mxCell id="9MCj3gH7MAVy1LrXMnC8-24" value="" style="endArrow=classic;html=1;rounded=0;" edge="1" parent="1">
          <mxGeometry width="50" height="50" relative="1" as="geometry">
            <mxPoint x="470" y="410" as="sourcePoint" />
            <mxPoint x="240" y="410" as="targetPoint" />
          </mxGeometry>
        </mxCell>
        <mxCell id="9MCj3gH7MAVy1LrXMnC8-25" value="&amp;nbsp;HTTP 调用接口 上传 exec" style="edgeLabel;html=1;align=center;verticalAlign=middle;resizable=0;points=[];" vertex="1" connectable="0" parent="9MCj3gH7MAVy1LrXMnC8-24">
          <mxGeometry x="0.1217" y="3" relative="1" as="geometry">
            <mxPoint as="offset" />
          </mxGeometry>
        </mxCell>
        <mxCell id="9MCj3gH7MAVy1LrXMnC8-33" value="&lt;span style=&quot;color: rgba(0, 0, 0, 0); font-family: monospace; font-size: 0px; text-align: start; background-color: rgb(236, 236, 236);&quot;&gt;%3CmxGraphModel%3E%3Croot%3E%3CmxCell%20id%3D%220%22%2F%3E%3CmxCell%20id%3D%221%22%20parent%3D%220%22%2F%3E%3CmxCell%20id%3D%222%22%20value%3D%22%22%20style%3D%22endArrow%3Dclassic%3Bhtml%3D1%3Brounded%3D0%3Bcurved%3D1%3B%22%20edge%3D%221%22%20parent%3D%221%22%3E%3CmxGeometry%20width%3D%2250%22%20height%3D%2250%22%20relative%3D%221%22%20as%3D%22geometry%22%3E%3CmxPoint%20x%3D%22500%22%20y%3D%22340%22%20as%3D%22sourcePoint%22%2F%3E%3CmxPoint%20x%3D%22500%22%20y%3D%22350%22%20as%3D%22targetPoint%22%2F%3E%3CArray%20as%3D%22points%22%3E%3CmxPoint%20x%3D%22550%22%20y%3D%22340%22%2F%3E%3CmxPoint%20x%3D%22530%22%20y%3D%22370%22%2F%3E%3C%2FArray%3E%3C%2FmxGeometry%3E%3C%2FmxCell%3E%3C%2Froot%3E%3C%2FmxGraphModel%3E&lt;/span&gt;" style="endArrow=classic;html=1;rounded=0;curved=1;" edge="1" parent="1">
          <mxGeometry width="50" height="50" relative="1" as="geometry">
            <mxPoint x="250" y="450" as="sourcePoint" />
            <mxPoint x="250" y="460" as="targetPoint" />
            <Array as="points">
              <mxPoint x="300" y="450" />
              <mxPoint x="280" y="480" />
            </Array>
          </mxGeometry>
        </mxCell>
        <mxCell id="9MCj3gH7MAVy1LrXMnC8-35" value="执行解析 exec 逻辑&lt;br&gt;基于 class 文件构建指令树&lt;br&gt;解析路径" style="text;html=1;align=center;verticalAlign=middle;whiteSpace=wrap;rounded=0;" vertex="1" parent="1">
          <mxGeometry x="250" y="480" width="180" height="40" as="geometry" />
        </mxCell>
      </root>
    </mxGraphModel>
  </diagram>
</mxfile>
